<?xml version="1.0" encoding="UTF-8"?> <!-- Generator: Adobe Illustrator 23.0.1, SVG Export Plug-In . SVG Version: 6.00 Build 0) --> <svg xmlns="http://www.w3.org/2000/svg" xmlns:xlink="http://www.w3.org/1999/xlink" id="Layer_1" x="0px" y="0px" viewBox="0 0 191.12 72.99" style="enable-background:new 0 0 191.12 72.99;" xml:space="preserve"> <style type="text/css"> .st0{fill:#FFCB05;} .st1{fill:#FFC20E;} .st2{fill:#F15A22;} .st3{fill:#414042;} </style> <g id="XMLID_280_"> <path id="XMLID_300_" class="st0" d="M66.66,11.95c-0.03-0.03-0.06-0.06-0.09-0.09C66.6,11.89,66.63,11.92,66.66,11.95L66.66,11.95 z"></path> <path id="XMLID_299_" class="st1" d="M40.81,4.92c-3.32,0-6.53,0.52-9.54,1.5l0,0c0,0,38.75-3.36,38.99,29.74c0,0,0,0.04,0,0.1h2.5 C72.45,18.71,57.83,4.92,40.81,4.92z"></path> <path id="XMLID_298_" class="st0" d="M31.47,23.69c0.01,0,0.01-0.01,0.02-0.01C31.48,23.68,31.47,23.68,31.47,23.69L31.47,23.69z"></path> <path id="XMLID_297_" class="st1" d="M37.21,12.04c-3.99,0-7.75,0.98-11.12,2.73l0.02,0c2.28-0.79,4.89-1.28,7.4-1.28 c11.76,0,23.12,8.85,23.96,22.77h5.14C62.2,21.42,49.93,12.04,37.21,12.04z"></path> <path id="XMLID_296_" class="st1" d="M37.43,7.64c-7.87,0-15.11,2.84-20.84,7.6C22.85,8.02,31.93,3.48,42.05,3.48 c9.63,0,18.31,4.06,24.52,10.68C59.98,6.36,50.08,1.35,38.96,1.35c-19.72,0-35.68,15.59-35.86,34.91h6.31 c0.34-14.38,12.65-25.57,27.76-25.57c14.97,0,27.17,11.36,27.71,25.57h3.76c-0.22-7.67-2.81-12.16-6.26-16.97 C56.23,12.14,47.33,7.64,37.43,7.64z"></path> <path id="XMLID_295_" class="st1" d="M38.7,22.01c-2.59,0-5.06,0.61-7.21,1.67c1.39-0.36,2.87-0.56,4.4-0.56 c8.36,0,15.05,5.47,15.47,13.14h2.98C54.4,28.77,47.09,22.01,38.7,22.01z"></path> <path id="XMLID_294_" class="st2" d="M31.27,66.1c0,0,6.22,1.5,9.54,1.5c17.02,0,31.68-13.99,31.95-31.34h-2.5 C70.26,38.12,69.64,65.96,31.27,66.1z"></path> <path id="XMLID_293_" class="st2" d="M33.51,59.03c-2.51,0-5.13-0.5-7.4-1.28l-0.02,0c3.36,1.75,7.13,2.73,11.12,2.73 c12.72,0,24.99-9.38,25.4-24.22h-5.14C57.91,47.67,45.27,59.03,33.51,59.03z"></path> <path id="XMLID_292_" class="st2" d="M66.66,55.95c-0.03,0.03-0.06,0.07-0.09,0.1C66.6,56.02,66.63,55.99,66.66,55.95L66.66,55.95z "></path> <path id="XMLID_291_" class="st2" d="M37.17,61.83c-15.11,0-27.42-11.2-27.76-25.57H3.09c0.19,19.32,16.14,34.91,35.86,34.91 c11.13,0,21.02-5.01,27.61-12.81c-6.21,6.62-14.88,10.68-24.52,10.68c-10.12,0-19.2-4.54-25.45-11.77 c5.73,4.76,12.97,7.6,20.84,7.6c9.9,0,18.79-4.5,24.94-11.65c3.46-4.81,6.21-10.7,6.26-16.97h-3.76 C64.34,50.47,52.14,61.83,37.17,61.83z"></path> <path id="XMLID_290_" class="st2" d="M31.46,48.83c0.01,0,0.02,0,0.03,0.01C31.48,48.84,31.48,48.83,31.46,48.83L31.46,48.83z"></path> <path id="XMLID_289_" class="st2" d="M35.89,49.4c-1.53,0-3-0.2-4.4-0.56c2.15,1.06,4.63,1.67,7.21,1.67 c8.39,0,15.58-6.77,15.64-14.25h-2.98C51.41,43.69,44.25,49.4,35.89,49.4z"></path> <path id="XMLID_288_" class="st2" d="M37.92,28c-4.54,0-8.22,3.66-8.26,8.2h16.51C46.14,31.66,42.46,28,37.92,28z"></path> <path id="XMLID_287_" class="st1" d="M29.67,36.19c0,0.02-0.01,0.04-0.01,0.07c0,4.56,3.7,8.26,8.26,8.26 c4.56,0,8.26-3.7,8.26-8.26c0-0.02-0.01-0.04-0.01-0.07H29.67z"></path> <path id="XMLID_286_" class="st0" d="M25.99,28.27c0.15-0.14,0.3-0.28,0.45-0.41C26.29,27.99,26.13,28.13,25.99,28.27z"></path> <path id="XMLID_285_" class="st0" d="M25.89,26.06c0.03-0.03,0.06-0.06,0.09-0.09C25.96,25.99,25.93,26.02,25.89,26.06z"></path> <path id="XMLID_284_" class="st1" d="M22.62,36.32h1.9c0-0.02,0-0.04,0-0.06c0-4.05,1.8-7.67,4.64-10.12 c-1.07,0.48-1.96,1.07-2.71,1.72c-0.15,0.14-0.31,0.27-0.45,0.41c-0.03,0.03-0.06,0.06-0.09,0.09 C23.87,30.41,22.62,33.21,22.62,36.32C22.62,36.32,22.62,36.32,22.62,36.32z"></path> <path id="XMLID_283_" class="st2" d="M24.52,36.32h-1.9c0,0.31,0.02,0.62,0.05,0.92c0.09,0.87,0.24,1.66,0.45,2.39 c1,3.25,3.42,5.88,6.54,7.16C26.55,44.35,24.54,40.58,24.52,36.32z"></path> <path id="XMLID_282_" class="st1" d="M19.7,36.18c0-8.97,8.14-16.23,18.18-16.23c7.04,0,13.14,3.58,16.16,8.81 c0.25,0.37,0.48,0.75,0.71,1.15l-0.01-0.04c-3.85-8.24-9.93-12.94-18.99-12.63c-10.58,0.36-19.18,7.88-21.57,17.65 c1.09-10.09,8.83-18.1,18.58-19.2l0,0c-0.37-0.02-0.74-0.05-1.12-0.05c-11.23,0-20.4,9.14-20.97,20.63h9.03 C19.71,36.23,19.7,36.2,19.7,36.18z"></path> <path id="XMLID_281_" class="st2" d="M37.89,52.41c-10.01,0-18.13-7.22-18.18-16.15h-9.03c0.57,11.49,9.74,20.63,20.97,20.63 c0.37,0,0.75-0.03,1.12-0.05l0,0c-9.75-1.09-17.49-9.1-18.58-19.19c2.39,9.77,11,17.29,21.57,17.65 c9.06,0.3,15.14-4.39,18.99-12.63l0.01-0.04c-0.47,0.83-0.99,1.59-1.56,2.3C49.97,49.42,44.32,52.41,37.89,52.41z"></path> </g> <g id="XMLID_218_"> <path id="XMLID_232_" class="st2" d="M99.52,34.07c-0.06-0.09-0.29-0.25-0.68-0.49s-0.87-0.49-1.46-0.75s-1.22-0.49-1.91-0.68 c-0.69-0.19-1.38-0.29-2.07-0.29c-1.9,0-2.85,0.64-2.85,1.91c0,0.39,0.1,0.71,0.31,0.97s0.51,0.49,0.91,0.7s0.9,0.39,1.51,0.57 c0.6,0.17,1.31,0.37,2.1,0.58c1.1,0.3,2.09,0.63,2.98,0.99c0.89,0.36,1.64,0.8,2.25,1.33c0.62,0.53,1.09,1.17,1.42,1.93 c0.33,0.76,0.5,1.66,0.5,2.72c0,1.29-0.24,2.39-0.73,3.29s-1.13,1.62-1.93,2.17c-0.8,0.55-1.72,0.95-2.75,1.2s-2.1,0.37-3.21,0.37 c-0.84,0-1.71-0.06-2.59-0.19c-0.89-0.13-1.75-0.32-2.59-0.57s-1.66-0.54-2.44-0.89c-0.79-0.34-1.52-0.74-2.19-1.2l2.33-4.63 c0.09,0.11,0.37,0.31,0.84,0.62c0.47,0.3,1.06,0.6,1.76,0.91c0.7,0.3,1.48,0.57,2.35,0.81c0.86,0.24,1.74,0.36,2.62,0.36 c1.88,0,2.82-0.57,2.82-1.72c0-0.43-0.14-0.79-0.42-1.07c-0.28-0.28-0.67-0.53-1.17-0.76s-1.08-0.44-1.76-0.63 s-1.42-0.41-2.22-0.65c-1.06-0.32-1.98-0.67-2.75-1.05c-0.78-0.38-1.42-0.81-1.93-1.31c-0.51-0.5-0.89-1.07-1.13-1.72 c-0.25-0.65-0.37-1.4-0.37-2.27c0-1.21,0.23-2.28,0.68-3.21c0.45-0.93,1.07-1.71,1.85-2.35c0.78-0.64,1.68-1.12,2.7-1.44 c1.02-0.32,2.11-0.49,3.25-0.49c0.8,0,1.59,0.08,2.36,0.23c0.78,0.15,1.52,0.35,2.23,0.58c0.71,0.24,1.38,0.51,1.99,0.81 c0.62,0.3,1.18,0.6,1.7,0.91L99.52,34.07z"></path> <path id="XMLID_229_" class="st2" d="M115.24,50.51c-1.71,0-3.26-0.33-4.66-1c-1.4-0.67-2.6-1.55-3.59-2.64 c-0.99-1.09-1.76-2.34-2.31-3.74c-0.55-1.4-0.83-2.85-0.83-4.34c0-1.51,0.29-2.97,0.86-4.37c0.57-1.4,1.37-2.64,2.4-3.71 c1.02-1.07,2.24-1.92,3.64-2.56c1.4-0.64,2.94-0.96,4.6-0.96c1.71,0,3.26,0.33,4.66,1c1.4,0.67,2.6,1.55,3.59,2.66 c0.99,1.1,1.76,2.35,2.3,3.76s0.81,2.83,0.81,4.27c0,1.51-0.29,2.97-0.86,4.37c-0.57,1.4-1.37,2.64-2.38,3.71 c-1.02,1.07-2.22,1.93-3.63,2.57S116.9,50.51,115.24,50.51z M109.25,38.86c0,0.89,0.13,1.74,0.39,2.57 c0.26,0.83,0.64,1.57,1.15,2.22c0.51,0.65,1.14,1.17,1.89,1.55c0.76,0.39,1.62,0.58,2.59,0.58c1.01,0,1.9-0.21,2.66-0.62 c0.76-0.41,1.38-0.94,1.88-1.6c0.5-0.66,0.87-1.4,1.12-2.23c0.25-0.83,0.37-1.68,0.37-2.54c0-0.88-0.13-1.74-0.39-2.57 c-0.26-0.83-0.65-1.57-1.17-2.2s-1.15-1.14-1.89-1.52s-1.6-0.57-2.57-0.57c-1.02,0-1.89,0.2-2.64,0.6s-1.37,0.92-1.88,1.57 c-0.51,0.65-0.89,1.39-1.13,2.22C109.37,37.15,109.25,37.99,109.25,38.86z"></path> <path id="XMLID_227_" class="st2" d="M128.71,50.32V27.33h5.31v18.33h11.14v4.66H128.71z"></path> <path id="XMLID_224_" class="st2" d="M155.8,27.33h4.79l8.39,22.99h-5.44l-1.78-5.15h-7.16l-1.75,5.15h-5.44L155.8,27.33z M160.88,41.51l-2.69-8.13l-2.75,8.13H160.88z"></path> <path id="XMLID_221_" class="st2" d="M170.89,50.32V27.33h10.36c1.08,0,2.08,0.23,3,0.68c0.92,0.45,1.71,1.05,2.38,1.78 c0.67,0.73,1.19,1.57,1.57,2.49c0.38,0.93,0.57,1.87,0.57,2.82c0,0.71-0.09,1.4-0.26,2.06c-0.17,0.66-0.42,1.28-0.74,1.86 c-0.32,0.58-0.72,1.11-1.18,1.57c-0.46,0.46-0.99,0.86-1.57,1.18l5.05,8.55h-5.99l-4.4-7.42h-3.46v7.42H170.89z M176.2,38.27h4.86 c0.63,0,1.17-0.3,1.62-0.89c0.45-0.59,0.68-1.35,0.68-2.28c0-0.95-0.26-1.71-0.78-2.27s-1.08-0.84-1.68-0.84h-4.7V38.27z"></path> </g> <g id="XMLID_197_"> <path id="XMLID_214_" class="st3" d="M90.18,8.75h1.2l5.98,14.39h-1.5l-1.86-4.5h-6.47l-1.84,4.5h-1.52L90.18,8.75z M93.67,17.53 l-2.9-7.11l-2.94,7.11H93.67z"></path> <path id="XMLID_212_" class="st3" d="M112.18,23.14V11.33l-5.25,9.14h-0.83l-5.25-9.14v11.82h-1.42V8.75h1.46l5.61,9.85l5.65-9.85 h1.44v14.39H112.18z"></path> <path id="XMLID_210_" class="st3" d="M126.87,21.89v1.26h-9.67V8.75h9.49v1.26h-8.07v5.19h7.03v1.2h-7.03v5.49H126.87z"></path> <path id="XMLID_207_" class="st3" d="M129.55,23.14V8.75h6.08c0.62,0,1.19,0.13,1.71,0.39c0.52,0.26,0.97,0.61,1.35,1.03 c0.38,0.43,0.67,0.91,0.88,1.45c0.21,0.54,0.31,1.09,0.31,1.64c0,0.53-0.08,1.03-0.23,1.51c-0.16,0.48-0.37,0.91-0.65,1.3 c-0.28,0.38-0.61,0.71-1,0.97s-0.83,0.44-1.32,0.54l3.53,5.55h-1.6l-3.39-5.31h-4.26v5.31H129.55z M130.96,16.58h4.7 c0.42,0,0.8-0.09,1.15-0.27s0.64-0.43,0.88-0.74c0.24-0.31,0.43-0.66,0.57-1.05c0.13-0.39,0.2-0.8,0.2-1.24s-0.08-0.85-0.23-1.25 c-0.16-0.4-0.36-0.75-0.63-1.04s-0.57-0.53-0.93-0.71c-0.36-0.17-0.73-0.26-1.12-0.26h-4.58V16.58z"></path> <path id="XMLID_205_" class="st3" d="M142.78,23.14V8.75h1.42v14.39H142.78z"></path> <path id="XMLID_203_" class="st3" d="M146.85,15.85c0-0.86,0.15-1.73,0.46-2.58c0.3-0.86,0.75-1.62,1.33-2.3s1.3-1.23,2.15-1.65 c0.85-0.42,1.82-0.64,2.9-0.64c1.28,0,2.38,0.29,3.29,0.87s1.58,1.34,2.02,2.27l-1.11,0.69c-0.23-0.47-0.51-0.87-0.84-1.2 c-0.33-0.32-0.69-0.59-1.06-0.79c-0.38-0.2-0.77-0.35-1.18-0.44c-0.41-0.09-0.8-0.13-1.2-0.13c-0.87,0-1.63,0.18-2.29,0.53 c-0.66,0.35-1.22,0.81-1.67,1.38s-0.79,1.21-1.02,1.92c-0.23,0.71-0.34,1.43-0.34,2.16c0,0.8,0.14,1.56,0.42,2.29 c0.28,0.73,0.66,1.38,1.14,1.94c0.48,0.56,1.05,1.01,1.7,1.34c0.66,0.33,1.37,0.5,2.14,0.5c0.41,0,0.82-0.05,1.25-0.15 s0.84-0.26,1.24-0.49s0.77-0.5,1.1-0.83s0.62-0.73,0.85-1.21l1.18,0.61c-0.23,0.54-0.55,1.02-0.97,1.43s-0.89,0.76-1.4,1.04 c-0.51,0.28-1.06,0.5-1.63,0.65s-1.14,0.22-1.69,0.22c-0.99,0-1.89-0.22-2.72-0.65c-0.82-0.43-1.53-1-2.13-1.69 c-0.59-0.7-1.06-1.49-1.39-2.37S146.85,16.76,146.85,15.85z"></path> <path id="XMLID_200_" class="st3" d="M165.97,8.75h1.2l5.98,14.39h-1.5l-1.86-4.5h-6.47l-1.84,4.5h-1.52L165.97,8.75z M169.45,17.53l-2.9-7.11l-2.94,7.11H169.45z"></path> <path id="XMLID_198_" class="st3" d="M176.63,11.39v11.76h-1.42V8.75h1.09l9.53,11.98V8.77h1.42v14.37h-1.24L176.63,11.39z"></path> </g> <polygon id="XMLID_196_" class="st3" points="85.87,59.59 90.13,59.59 90.13,58.49 85.87,58.49 85.87,55.7 90.76,55.7 90.76,54.53 84.57,54.53 84.57,63.75 90.88,63.75 90.88,62.57 85.87,62.57 "></polygon> <polygon id="XMLID_195_" class="st3" points="98.82,61.45 93.33,54.55 93.31,54.53 92.3,54.53 92.3,63.75 93.6,63.75 93.6,56.96 99.01,63.72 99.03,63.75 100.12,63.75 100.12,54.54 98.82,54.54 "></polygon> <polygon id="XMLID_194_" class="st3" points="103.44,59.59 107.69,59.59 107.69,58.49 103.44,58.49 103.44,55.7 108.33,55.7 108.33,54.53 102.14,54.53 102.14,63.75 108.45,63.75 108.45,62.57 103.44,62.57 "></polygon> <path id="XMLID_191_" class="st3" d="M115.5,59.89c0.24-0.17,0.45-0.39,0.62-0.63c0.17-0.24,0.3-0.52,0.39-0.82 c0.09-0.3,0.14-0.61,0.14-0.94c0-0.36-0.07-0.73-0.21-1.08c-0.14-0.35-0.33-0.67-0.58-0.95c-0.25-0.28-0.55-0.51-0.89-0.68 c-0.35-0.17-0.73-0.26-1.14-0.26h-3.96v9.22h1.3v-3.26h2.29l2.05,3.22l0.02,0.04H117l-2.22-3.51 C115.05,60.16,115.29,60.04,115.5,59.89z M111.17,55.7h2.59c0.21,0,0.41,0.05,0.6,0.14c0.19,0.09,0.36,0.22,0.5,0.39 c0.14,0.17,0.26,0.36,0.35,0.58c0.09,0.21,0.13,0.45,0.13,0.69c0,0.24-0.04,0.47-0.11,0.69c-0.07,0.22-0.18,0.42-0.31,0.58 c-0.13,0.17-0.29,0.3-0.47,0.4c-0.18,0.1-0.38,0.14-0.61,0.14h-2.67V55.7z"></path> <path id="XMLID_190_" class="st3" d="M122.71,60.09h1.95v1.15c-0.77,0.92-1.64,1.38-2.59,1.38c-0.44,0-0.85-0.09-1.22-0.27 c-0.37-0.18-0.7-0.44-0.97-0.75c-0.27-0.32-0.49-0.69-0.65-1.11c-0.16-0.42-0.24-0.87-0.24-1.35c0-0.45,0.07-0.89,0.21-1.31 c0.14-0.42,0.34-0.8,0.6-1.11c0.26-0.32,0.57-0.58,0.93-0.77c0.36-0.19,0.77-0.29,1.22-0.29c0.55,0,1.04,0.13,1.48,0.37 c0.44,0.25,0.79,0.63,1.06,1.14l0.04,0.08l1-0.7l-0.03-0.06c-0.3-0.6-0.75-1.09-1.32-1.46c-0.58-0.37-1.32-0.56-2.21-0.56 c-0.61,0-1.19,0.13-1.72,0.38c-0.53,0.25-0.99,0.59-1.37,1.02c-0.38,0.43-0.68,0.92-0.9,1.48c-0.22,0.55-0.33,1.15-0.33,1.77 c0,0.59,0.11,1.18,0.33,1.74c0.22,0.56,0.52,1.06,0.9,1.5c0.38,0.44,0.84,0.79,1.36,1.06c0.52,0.27,1.1,0.4,1.71,0.4 c1,0,1.9-0.4,2.68-1.18v1.12h1.12v-4.67h-3.08V60.09z"></path> <polygon id="XMLID_92_" class="st3" points="130.1,59.18 127.42,54.56 127.4,54.53 125.96,54.53 129.45,60.36 129.45,63.75 130.75,63.75 130.75,60.38 134.19,54.64 134.26,54.53 132.83,54.53 "></polygon> <path id="XMLID_91_" class="st3" d="M143.63,59.42c-0.27-0.2-0.61-0.37-0.99-0.5c-0.38-0.13-0.81-0.25-1.28-0.35 c-0.4-0.09-0.76-0.18-1.06-0.27c-0.29-0.08-0.54-0.18-0.73-0.29c-0.19-0.11-0.33-0.24-0.41-0.39c-0.09-0.15-0.13-0.34-0.13-0.58 c0-0.44,0.15-0.78,0.46-1.03c0.31-0.25,0.82-0.38,1.51-0.38c0.27,0,0.53,0.03,0.77,0.08c0.25,0.05,0.48,0.13,0.68,0.21 c0.21,0.09,0.4,0.19,0.56,0.29c0.16,0.11,0.29,0.22,0.39,0.33l0.07,0.08l0.62-1.08l-0.05-0.04c-0.39-0.32-0.84-0.58-1.34-0.77 c-0.5-0.19-1.07-0.29-1.69-0.29c-0.47,0-0.92,0.06-1.32,0.18c-0.41,0.12-0.77,0.3-1.06,0.53c-0.3,0.24-0.53,0.53-0.7,0.87 s-0.25,0.74-0.25,1.18c0,0.37,0.06,0.69,0.19,0.95c0.12,0.27,0.31,0.49,0.55,0.68c0.24,0.18,0.54,0.34,0.9,0.47 c0.36,0.13,0.77,0.25,1.22,0.36c0.42,0.1,0.79,0.2,1.11,0.3c0.32,0.1,0.59,0.21,0.81,0.33c0.21,0.12,0.37,0.27,0.48,0.43 c0.11,0.16,0.16,0.37,0.16,0.6c0,0.44-0.16,0.75-0.5,0.97c-0.34,0.22-0.84,0.33-1.47,0.33c-0.34,0-0.67-0.04-0.99-0.11 c-0.31-0.07-0.61-0.16-0.88-0.28c-0.27-0.11-0.52-0.24-0.73-0.38c-0.21-0.14-0.39-0.28-0.52-0.42l-0.07-0.07l-0.63,1.11l0.05,0.04 c0.51,0.42,1.1,0.75,1.73,0.96c0.63,0.22,1.31,0.33,2.01,0.33c0.47,0,0.91-0.05,1.32-0.15c0.41-0.1,0.77-0.26,1.07-0.47 c0.3-0.21,0.54-0.49,0.72-0.82c0.18-0.33,0.26-0.72,0.26-1.17c0-0.42-0.07-0.78-0.22-1.07C144.12,59.87,143.91,59.62,143.63,59.42z"></path> <path id="XMLID_15_" class="st3" d="M152.38,55.95c-0.38-0.44-0.84-0.8-1.36-1.07c-0.53-0.27-1.12-0.41-1.77-0.41 c-0.62,0-1.21,0.13-1.74,0.38c-0.53,0.26-1,0.6-1.38,1.03c-0.39,0.43-0.7,0.93-0.91,1.49c-0.22,0.56-0.33,1.15-0.33,1.76 c0,0.58,0.1,1.17,0.31,1.73c0.21,0.56,0.5,1.06,0.88,1.5c0.38,0.44,0.84,0.79,1.37,1.05c0.53,0.26,1.13,0.4,1.78,0.4 c0.62,0,1.21-0.13,1.74-0.38c0.53-0.25,0.99-0.6,1.38-1.03c0.38-0.43,0.69-0.93,0.91-1.49c0.22-0.56,0.33-1.15,0.33-1.76 c0-0.58-0.1-1.15-0.31-1.71C153.05,56.89,152.75,56.38,152.38,55.95z M149.23,62.63c-0.45,0-0.87-0.1-1.24-0.29 c-0.37-0.19-0.7-0.45-0.96-0.77c-0.27-0.32-0.47-0.7-0.62-1.12c-0.15-0.42-0.22-0.86-0.22-1.31c0-0.43,0.07-0.86,0.21-1.28 c0.14-0.42,0.35-0.79,0.61-1.11c0.26-0.32,0.58-0.59,0.95-0.79c0.37-0.2,0.8-0.3,1.27-0.3c0.45,0,0.86,0.1,1.22,0.29 c0.37,0.19,0.69,0.45,0.96,0.77c0.27,0.32,0.48,0.69,0.63,1.11c0.15,0.42,0.22,0.86,0.22,1.31c0,0.43-0.07,0.85-0.21,1.27 c-0.14,0.42-0.34,0.79-0.6,1.12c-0.26,0.33-0.58,0.6-0.96,0.8C150.12,62.52,149.7,62.63,149.23,62.63z"></path> <path id="XMLID_14_" class="st3" d="M161.2,61.08c-0.12,0.27-0.28,0.51-0.48,0.7c-0.19,0.19-0.41,0.36-0.63,0.49 c-0.22,0.13-0.46,0.22-0.7,0.28c-0.71,0.17-1.37,0.09-1.94-0.2c-0.37-0.19-0.7-0.45-0.97-0.77c-0.27-0.32-0.49-0.7-0.65-1.12 c-0.15-0.42-0.23-0.87-0.23-1.33c0-0.42,0.07-0.84,0.19-1.25c0.13-0.41,0.32-0.79,0.58-1.11c0.26-0.33,0.58-0.6,0.95-0.8 c0.38-0.2,0.81-0.3,1.3-0.3c0.22,0,0.46,0.02,0.69,0.07c0.23,0.05,0.46,0.13,0.68,0.25s0.42,0.27,0.61,0.46 c0.19,0.19,0.35,0.43,0.48,0.71l0.04,0.08l1.03-0.67l-0.03-0.06c-0.29-0.6-0.73-1.09-1.32-1.46c-0.59-0.37-1.3-0.56-2.12-0.56 c-0.69,0-1.31,0.14-1.86,0.4c-0.54,0.27-1.01,0.62-1.38,1.06c-0.37,0.44-0.66,0.93-0.86,1.48c-0.19,0.55-0.29,1.1-0.29,1.65 c0,0.59,0.11,1.17,0.32,1.73c0.21,0.56,0.51,1.07,0.9,1.52c0.38,0.44,0.84,0.81,1.37,1.08c0.53,0.28,1.11,0.42,1.75,0.42 c0.35,0,0.72-0.05,1.09-0.14c0.37-0.09,0.73-0.23,1.06-0.42c0.33-0.18,0.63-0.41,0.9-0.67c0.27-0.27,0.47-0.58,0.62-0.92l0.03-0.06 l-1.09-0.59L161.2,61.08z"></path> <rect id="XMLID_13_" x="163.51" y="54.53" class="st3" width="1.3" height="9.22"></rect> <polygon id="XMLID_12_" class="st3" points="167.7,59.6 171.95,59.6 171.95,58.49 167.7,58.49 167.7,55.7 172.59,55.7 172.59,54.53 166.4,54.53 166.4,63.75 172.71,63.75 172.71,62.58 167.7,62.58 "></polygon> <polygon id="XMLID_11_" class="st3" points="173.5,55.7 176.63,55.7 176.63,63.75 177.93,63.75 177.93,55.7 181.06,55.7 181.06,54.53 173.5,54.53 "></polygon> <polygon id="XMLID_9_" class="st3" points="188.47,54.53 185.74,59.19 183.05,54.57 183.03,54.53 181.59,54.53 185.09,60.37 185.09,63.76 186.39,63.76 186.39,60.39 189.82,54.65 189.89,54.53 "></polygon> </svg> 