<svg clip-rule="evenodd" fill-rule="evenodd" stroke-linejoin="round" stroke-miterlimit="2" viewBox="0 0 560 400" xmlns="http://www.w3.org/2000/svg"><g fill-rule="nonzero" transform="matrix(.431088 0 0 .431088 29.9537 139.638)"><path d="m773.6 60.87-52.89-24.75c-1.836-.875-4.031-.545-5.53.83-1.092 1.038-1.693 2.494-1.65 4v41.13h61.68v-18.68c-.004-1.081-.632-2.068-1.61-2.53z"/><path d="m856 133.65-5.78-2.13c-4.06-1.407-6.087-3.633-6.08-6.68.014-1.643.745-3.2 2-4.26 1.296-1.087 2.92-1.707 4.61-1.76.42 0 .85-.06 1.31-.06 5.211.185 10.375 1.053 15.36 2.58 2.14.6 4.29 1.28 6.44 2 .777.278 1.649-.083 2-.83l15.73-33.6c.063-.147.107-.302.13-.46.11-.764-.341-1.506-1.07-1.76-7.14-2.436-14.441-4.371-21.85-5.79-5.938-1.168-11.955-1.896-18-2.18-1.51-.06-3-.1-4.46-.1-11.76 0-21.943 2.077-30.55 6.23-8.138 3.718-15.059 9.665-19.96 17.15-4.736 7.554-7.169 16.326-7 25.24 0 11.333 3.09 20.857 9.27 28.57s14.643 13.59 25.39 17.63l5.77 2.13c4.873 1.627 7.307 4.16 7.3 7.6.03 1.766-.757 3.45-2.13 4.56-1.42 1.22-3.547 1.83-6.38 1.83-6.667 0-14.357-1.583-23.07-4.75-.777-.274-1.645.087-2 .83l-16.22 34.65v.28c7.709 3.447 15.751 6.094 24 7.9 8.187 1.81 16.546 2.729 24.93 2.74 11.953 0 22.44-2.08 31.46-6.24s15.97-9.977 20.85-17.45c4.86-7.493 7.29-16.207 7.29-26.14 0-11.547-3.19-21.173-9.57-28.88s-16.287-13.99-29.72-18.85z"/><path d="m1129 94.59c-8.72-10.24-21.89-15.36-39.52-15.36-8.61-.085-17.17 1.409-25.24 4.41-6.85 2.542-13.13 6.402-18.49 11.36-.3.288-.7.45-1.12.45-.48 0-.94-.217-1.25-.59-8.1-10.407-20.01-15.613-35.73-15.62-7.55-.102-15.036 1.348-22 4.26-4.75 2.022-9.14 4.802-13 8.23-.291.246-.66.381-1.04.381-.869 0-1.589-.703-1.61-1.571v-11.541c0-.883-.727-1.61-1.61-1.61-.235 0-.467.052-.68.151l-58.49 27.37c-.565.266-.928.836-.93 1.46v118.39c0 .883.727 1.61 1.61 1.61h58.49c.883 0 1.61-.727 1.61-1.61v-80.76c0-4.06 1.117-7.303 3.35-9.73 4.837-4.834 12.793-4.834 17.63 0 2.233 2.433 3.347 5.677 3.34 9.73v80.77c.005.885.735 1.61 1.62 1.61h58.48c.89 0 1.62-.725 1.62-1.61v-80.77c0-4.06 1.11-7.303 3.34-9.73 4.84-4.834 12.79-4.834 17.63 0 2.23 2.433 3.35 5.677 3.35 9.73v50.6c0 .362.12.713.34 1-.22.285-.34.638-.34 1v18.83c0 .621.36 1.189.92 1.46l58.49 27.37c.21.099.44.15.68.15.89 0 1.61-.725 1.62-1.61v-107.33c-.05-17.02-4.4-30.647-13.07-40.88z"/><path d="m301.08 77.49-58.49 27.37c-.565.266-.928.836-.93 1.46v57.73c.161 3.998-1.197 7.912-3.8 10.95-2.69 2.718-6.36 4.25-10.185 4.25s-7.495-1.532-10.185-4.25c-2.603-3.038-3.961-6.952-3.8-10.95v-85.05s0 0 0-.001c0-.883-.727-1.61-1.61-1.61-.235 0-.467.052-.68.151l-58.49 27.37c-.565.266-.928.836-.93 1.46v66.24c0 17.84 4.157 31.977 12.47 42.41s20.877 15.653 37.69 15.66c7.792.095 15.531-1.3 22.8-4.11 5.612-2.203 10.783-5.393 15.27-9.42.293-.257.67-.398 1.06-.398.883 0 1.609.725 1.61 1.608v6.45c0 .883.727 1.61 1.61 1.61h57.27c.883 0 1.61-.727 1.61-1.61v-145.81c.001-.017.001-.034.001-.051 0-.883-.727-1.61-1.61-1.61-.235 0-.468.052-.681.151z"/><path d="m577.79 77.49-58.49 27.37c-.565.266-.928.836-.93 1.46v57.73c.161 3.998-1.197 7.912-3.8 10.95-2.69 2.718-6.36 4.25-10.185 4.25s-7.495-1.532-10.185-4.25c-2.603-3.038-3.961-6.952-3.8-10.95v-85.05s0 0 0-.001c0-.883-.727-1.61-1.61-1.61-.235 0-.467.052-.68.151l-58.49 27.37c-.565.266-.928.836-.93 1.46v66.24c0 17.84 4.157 31.977 12.47 42.41s20.877 15.653 37.69 15.66c7.792.095 15.531-1.3 22.8-4.11 5.612-2.203 10.783-5.393 15.27-9.42.293-.257.67-.398 1.06-.398.883 0 1.609.725 1.61 1.608v6.45c0 .883.727 1.61 1.61 1.61h57.27c.883 0 1.61-.727 1.61-1.61v-145.81c.001-.017.001-.034.001-.051 0-.883-.727-1.61-1.61-1.61-.235 0-.468.052-.681.151z"/><path d="m695.16 80.16c-9.8.2-17.92 2.17-24.36 5.91-3.456 2.021-6.551 4.603-9.16 7.64-.306.362-.756.572-1.23.572-.869 0-1.589-.703-1.61-1.572v-13.71c-.006-.885-.735-1.61-1.62-1.61-.235 0-.467.051-.68.15l-58.5 27.32c-.562.27-.923.837-.93 1.46v118.44c.005.885.735 1.61 1.62 1.61h58.48c.885 0 1.615-.725 1.62-1.61v-55.84c0-12.567 3.24-21.687 9.72-27.36 6.213-5.433 15.107-8.267 26.68-8.5.877-.011 1.595-.733 1.6-1.61v-49.67c0-.889-.731-1.62-1.62-1.62-.003 0-.007 0-.01 0z"/><path d="m152 37.69c0-.883-.727-1.61-1.61-1.61h-132.39v206.67c.006.885.735 1.61 1.62 1.61.235 0 .467-.051.68-.15l59.77-28c.568-.262.933-.834.93-1.46v-40.26c0-.883.727-1.61 1.61-1.61h52.17c.887-.005 1.615-.733 1.62-1.62v-52.87c-.005-.885-.735-1.61-1.62-1.61h-52.19c-.879-.011-1.596-.741-1.59-1.62v-21.37c0-.883.727-1.61 1.61-1.61h67.29v-.1h.51c.877-.016 1.59-.743 1.59-1.62z"/><path d="m380.16 86.23v-42.23c-.001-1.058-.872-1.928-1.93-1.928-.28 0-.556.061-.81.178l-57.85 26.92c-.679.317-1.117 1-1.12 1.75v10.71c.015.173.015.347 0 .52v55.88c.015.173.015.347 0 .52v32.19c0 19.047 5.017 33.893 15.05 44.54s25.283 15.98 45.75 16c11.382.16 22.703-1.692 33.44-5.47v-49.6c-5.117 1.653-10.437 2.592-15.81 2.79-5.667 0-9.87-1.47-12.61-4.41s-4.11-7.147-4.11-12.62v-27.97h32.53v-47.77z"/><path d="m774.94 90h-61.64v131.25c.086 2.686 2.363 4.828 5.05 4.75h51.59c2.668.05 4.914-2.083 5-4.75z"/></g></svg>