<?xml version="1.0" encoding="UTF-8"?>
<svg width="1505px" height="421px" viewBox="0 0 1505 421" version="1.1" xmlns="http://www.w3.org/2000/svg" xmlns:xlink="http://www.w3.org/1999/xlink">
    <!-- Generator: Sketch 61.2 (89653) - https://sketch.com -->
    <title>Just the News.</title>
    <desc>Created with Sketch.</desc>
    <defs>
        <polygon id="path-1" points="0 0 1461.45 0 1461.45 15.94 0 15.94"></polygon>
    </defs>
    <g id="Just-the-News-HORZ-PRIMARY" stroke="none" stroke-width="1" fill="none" fill-rule="evenodd">
        <g id="Group-3" transform="translate(0.000000, 405.000000)">
            <mask id="mask-2" fill="white">
                <use xlink:href="#path-1"></use>
            </mask>
            <g id="Clip-2"></g>
            <path d="M1453.45,16 L8,16 C3.582,16 0,12.418 0,8 C0,3.583 3.582,0 8,0 L1453.45,0 C1457.87,0 1461.45,3.583 1461.45,8 C1461.45,12.418 1457.87,16 1453.45,16" id="Fill-1" fill="#2594C6" mask="url(#mask-2)"></path>
        </g>
        <path d="M501.914,392.259 L501.927,405 L877.989,405 L877.989,392.241 C867.356,387.589 855.813,383.788 843.817,379.875 L843.817,347.023 C860.432,333.423 843.263,324.307 843.263,324.307 C843.263,311.84 830.993,310.903 830.993,310.903 C829.842,188.213 739.847,160.041 739.847,160.041 L739.847,149.822 C739.847,149.822 711.448,138.436 711.448,124.701 C711.448,110.966 711.448,101.456 711.448,101.456 C711.448,101.456 709.826,92.109 716.724,92.109 L716.639,83.986 L713.97,83.724 C706.812,83.702 697.24,59.749 697.24,59.749 L697.24,55.85 L700.422,50.948 L694.218,43.9 L696.185,30.414 L694.206,18.838 L696.955,18.534 L691.966,8.973 C691.966,8.973 694.426,4.131 690.617,0.145 C690.617,0.145 684.452,1.005 686.47,7.744 C686.47,7.744 681.422,16.322 682.093,19.39 L682.211,30.312 L687.181,43.701 L680.816,50.948 L684,55.85 L684,59.749 C684,59.749 674.324,83.702 667.621,83.724 L665.008,84.037 L664.975,92.077 C671.711,92.109 670.423,102.08 670.423,102.08 C670.423,102.08 670.423,112.42 670.423,125.325 C670.423,138.23 640.177,150.446 640.177,150.446 L640.177,160.666 C640.177,160.666 550.84,190.031 548.909,310.958 C548.909,310.958 536.641,311.811 536.641,324.932 C536.641,324.932 519.601,334.304 536.209,347.647 L536.209,380.499 C525.165,384.109 511.805,388.031 501.914,392.259" id="Fill-4" fill="#0A0B09"></path>
        <path d="M1504.43,361.091 C1504.43,368.995 1498.02,375.404 1490.11,375.404 C1482.21,375.404 1475.8,368.995 1475.8,361.091 C1475.8,353.186 1482.21,346.778 1490.11,346.778 C1498.02,346.778 1504.43,353.186 1504.43,361.091" id="Fill-5" fill="#0A0B09"></path>
        <path d="M1504.43,361.091 C1504.43,368.995 1498.02,375.404 1490.11,375.404 C1482.21,375.404 1475.8,368.995 1475.8,361.091 C1475.8,353.186 1482.21,346.778 1490.11,346.778 C1498.02,346.778 1504.43,353.186 1504.43,361.091 Z" id="Stroke-6" stroke="#0A0B09"></path>
        <path d="M1425.65,302.823 L1412.23,300.973 C1399.13,299.184 1392.75,293.76 1392.75,284.392 C1392.75,279.361 1395.03,275.08 1399.52,271.667 C1404.1,268.197 1409.89,266.438 1416.73,266.438 C1423.43,266.438 1429.35,268.057 1434.33,271.249 C1439.17,274.362 1441.7,278.09 1441.85,282.313 L1441.85,289.974 C1442.01,295.447 1444.95,298.34 1450.35,298.34 C1455.93,298.34 1458.87,294.957 1458.87,288.556 C1458.87,287.687 1458.82,284.501 1458.77,281.176 L1458.76,280.53 C1458.71,276.993 1458.65,273.457 1458.65,272.534 C1458.65,270.546 1458.74,264.778 1458.81,260.566 C1458.84,258.287 1458.87,256.522 1458.87,256.194 C1458.87,250.701 1455.89,247.797 1450.24,247.797 C1445.06,247.797 1442.18,250.737 1441.87,256.314 C1435.08,251.582 1426.73,249.184 1417.04,249.184 C1403.8,249.184 1392.89,252.644 1384.61,259.468 C1376.27,266.333 1372.03,275.42 1372.03,286.477 C1372.03,298.222 1376.41,306.565 1385.04,311.277 C1393.43,315.869 1405.77,319.057 1421.71,320.755 C1437.68,322.383 1445.78,328.193 1445.78,338.022 C1445.78,343.527 1443.42,348.163 1438.76,351.799 C1434.03,355.495 1427.94,357.368 1420.66,357.368 C1410.42,357.368 1401.88,355.318 1395.28,351.275 C1388.84,347.321 1385.51,342.154 1385.36,335.916 C1385.2,328.974 1384.68,324.937 1383.74,323.208 C1382.7,321.331 1380.34,320.378 1376.73,320.378 C1371.24,320.378 1368.33,323.522 1368.33,329.468 C1368.33,330.245 1368.41,332.797 1368.5,335.81 C1368.62,339.958 1368.77,345.122 1368.77,347.297 L1368.78,348.584 C1368.8,352.352 1368.86,361.174 1368.33,365.992 C1368.33,372.845 1371.64,376.468 1377.89,376.468 C1383.68,376.468 1386.75,373.246 1386.75,367.148 L1386.75,364.745 C1395.93,371.298 1406.75,374.621 1418.94,374.621 C1432.79,374.621 1444.17,371.085 1452.76,364.113 C1461.42,357.09 1465.8,347.768 1465.8,336.403 C1465.8,317.727 1452.29,306.429 1425.65,302.823" id="Fill-8" fill="#0A0B09"></path>
        <path d="M1349.91,252.883 C1349.56,252.883 1347.61,252.908 1344.98,252.942 L1344.39,252.95 C1338.84,253.021 1330.44,253.13 1327.71,253.13 C1324.23,253.13 1315,253.02 1308.9,252.948 L1307.8,252.935 C1305.31,252.905 1303.52,252.883 1303.21,252.883 C1295.03,252.883 1290.88,255.941 1290.88,261.971 C1290.88,267.616 1294.19,270.599 1300.43,270.599 C1301.21,270.599 1303.7,270.219 1306.64,269.772 C1308.96,269.42 1311.84,268.982 1312.45,268.982 C1315.4,268.982 1316.77,270.653 1316.77,274.242 L1316.77,274.704 C1316.77,277.874 1316.23,281.694 1315.18,286.056 L1299.11,352.248 L1282.69,275.166 C1280.82,266.595 1278.7,260.708 1276.38,257.667 C1273.96,254.493 1270.16,252.883 1265.07,252.883 C1260.15,252.883 1256.42,254.451 1254,257.541 C1251.65,260.525 1249.58,266.29 1247.68,275.162 L1230.59,352.297 L1214.72,286.06 C1213.66,281.64 1213.13,277.896 1213.13,274.933 C1213.13,270.873 1214.72,268.982 1218.14,268.982 C1219.1,268.982 1222.52,269.532 1225.05,269.938 C1227.68,270.36 1229.19,270.599 1229.71,270.599 C1235.95,270.599 1239.26,267.576 1239.26,261.857 C1239.26,257.763 1237.32,252.883 1228.08,252.883 C1227.72,252.883 1225.1,252.929 1221.6,252.992 L1221.36,252.996 C1214.46,253.118 1204.04,253.301 1201.2,253.301 C1199.03,253.301 1191.93,253.14 1186.75,253.021 L1185.95,253.003 C1182.98,252.936 1180.67,252.883 1180.23,252.883 C1170.81,252.883 1168.83,257.891 1168.83,262.091 C1168.83,267.657 1171.81,270.599 1177.46,270.599 C1177.96,270.599 1179.31,270.347 1182.28,269.771 C1183.69,269.496 1186.33,268.982 1186.7,268.982 C1189.11,268.982 1190.97,271.229 1192.21,275.653 L1214.4,359.046 C1216.98,369.074 1222.21,374.159 1229.93,374.159 C1234.69,374.159 1238.52,372.446 1241.34,369.068 C1244.04,365.813 1246.29,360.202 1248.02,352.39 L1265.04,276.165 L1281.42,353.953 C1284.3,367.361 1290.15,374.159 1298.81,374.159 C1303.41,374.159 1307.08,372.594 1309.74,369.507 C1312.33,366.499 1314.52,361.382 1316.43,353.868 L1332.15,294.06 C1337.81,272.242 1342.06,268.981 1344.03,268.976 C1344.16,268.995 1344.76,269.139 1345.43,269.297 C1348.32,269.983 1351.01,270.599 1352.22,270.599 C1357.86,270.599 1360.85,267.576 1360.85,261.857 C1360.85,257.763 1358.95,252.883 1349.91,252.883" id="Fill-9" fill="#0A0B09"></path>
        <path d="M1077.66,299.739 C1077.66,292.329 1081.12,285.512 1087.95,279.477 C1094.82,273.403 1102.53,270.323 1110.85,270.323 C1118.84,270.323 1125.91,273.275 1131.86,279.098 C1137.8,284.913 1140.81,291.857 1140.81,299.739 C1140.81,300.416 1140.81,302 1136.95,302 L1081.74,302 C1077.66,302 1077.66,300.357 1077.66,299.739 Z M1110.62,253.013 C1094.08,253.013 1080.46,259.063 1070.12,270.996 C1059.85,282.895 1054.64,298.581 1054.64,317.618 C1054.64,336.201 1059.54,351.227 1069.21,362.279 C1078.92,373.37 1092.15,378.993 1108.54,378.993 C1121.87,378.993 1133.74,374.972 1143.82,367.043 C1150.4,361.872 1155.27,355.189 1157.53,348.227 C1158.41,345.525 1158,342.806 1156.38,340.572 C1154.53,338.032 1151.41,336.516 1148.03,336.516 C1143.54,336.516 1140.65,338.661 1139.42,342.97 C1139.41,343.034 1138.5,349.405 1128.65,356.277 C1123.51,359.856 1117.45,361.671 1110.62,361.671 C1100.65,361.671 1092.2,357.874 1085.49,350.384 C1078.76,342.883 1075.34,333.345 1075.34,322.034 C1075.34,321.107 1075.55,320.464 1075.95,320.112 C1076.1,319.982 1076.75,319.556 1079.2,319.556 L1152.67,319.556 C1156.78,319.556 1159.26,318.746 1160.24,317.08 C1161.12,315.577 1161.53,311.989 1161.53,305.79 C1161.53,290.576 1156.69,277.843 1147.15,267.944 C1137.6,258.037 1125.31,253.013 1110.62,253.013 L1110.62,253.013 Z" id="Fill-10" fill="#0A0B09"></path>
        <path d="M1044.45,213.584 C1044.33,213.584 1042.8,213.596 1040.5,213.614 L1039.85,213.619 C1033.03,213.671 1020.34,213.768 1017.45,213.768 C1014.89,213.768 1005.12,213.692 998.661,213.641 L997.297,213.631 C993.874,213.604 991.279,213.584 990.823,213.584 C981.4,213.584 979.423,218.653 979.423,222.905 C979.423,225.175 980.26,227.165 981.91,228.816 C983.558,230.468 985.546,231.305 987.819,231.305 C989.104,231.305 990.969,231.113 993.521,230.717 C995.981,230.334 997.745,230.148 998.912,230.148 C1004.72,230.148 1008.18,233.801 1009.48,241.292 C1009.63,242.492 1009.7,249.138 1009.7,261.047 L1009.7,349.815 L949.542,224.565 L947,219.006 C945.289,215.409 941.804,213.584 936.641,213.584 L915.863,213.598 C913.042,213.598 904.58,213.592 899.154,213.587 L894.412,213.584 C885.385,213.584 883.49,218.527 883.49,222.674 C883.49,228.321 886.375,231.305 891.832,231.305 C893.266,231.305 895.419,231.074 898.413,230.6 C900.341,230.3 901.832,230.148 902.844,230.148 C910.199,230.148 913.774,235.492 913.774,246.484 L913.774,339.408 C913.774,350.404 910.244,355.749 902.982,355.749 C902.15,355.749 898.806,355.357 896.118,355.042 L896.004,355.029 C893.349,354.717 892.232,354.59 891.888,354.59 C886.394,354.59 883.49,357.415 883.49,362.756 C883.49,366.904 885.388,371.848 894.429,371.848 C894.546,371.848 896.319,371.805 898.967,371.74 L899.213,371.734 C906.62,371.551 922.034,371.173 924.981,371.173 C928.634,371.173 943.129,371.593 949.344,371.774 C950.927,371.82 951.924,371.848 951.988,371.848 C961.412,371.848 963.39,367.032 963.39,362.991 C963.39,357.496 960.486,354.59 954.992,354.59 C953.736,354.59 951.839,354.709 949.352,354.943 C946.92,355.17 945.086,355.286 943.898,355.286 C936.64,355.286 933.11,349.941 933.11,338.946 L933.11,235.831 L992.065,357.88 C997.485,368.988 1004.28,374.621 1012.25,374.621 C1018.49,374.621 1022.96,372.274 1025.55,367.645 C1028.02,363.194 1029.27,355.499 1029.27,344.774 L1029.27,246.504 C1029.57,239.966 1030.38,235.72 1031.67,233.882 C1032.88,232.172 1035.7,231.305 1040.04,231.305 L1044.98,231.305 C1053.58,231.305 1055.39,226.549 1055.39,222.559 C1055.39,218.465 1053.49,213.584 1044.45,213.584" id="Fill-11" fill="#0A0B09"></path>
        <path d="M780.761,297.117 C780.63,297.142 780.428,297.166 780.131,297.166 L750.144,297.166 C749.775,297.166 749.534,297.133 749.387,297.101 C749.44,293.262 751.121,289.843 754.521,286.656 C758.021,283.378 761.76,281.785 765.951,281.785 C769.933,281.785 773.319,283.29 776.305,286.386 C779.253,289.447 780.713,292.944 780.761,297.117 Z M786.758,278.045 C781.281,272.025 774.239,268.973 765.827,268.973 C756.384,268.973 748.601,272.635 742.694,279.859 C736.903,286.967 733.966,296.294 733.966,307.581 C733.966,318.607 736.738,327.555 742.205,334.177 C747.769,340.911 755.337,344.326 764.698,344.326 C772.292,344.326 779.057,341.898 784.804,337.109 C788.592,333.953 791.396,329.867 792.702,325.602 C793.323,323.575 792.977,321.461 791.752,319.806 C790.467,318.068 788.371,317.031 786.146,317.031 C783.059,317.031 780.902,318.691 780.077,321.707 L780.021,321.993 C780.017,322.024 779.514,325.163 774.74,328.691 C772.212,330.56 769.213,331.507 765.827,331.507 C760.799,331.507 756.702,329.552 753.303,325.528 C749.825,321.421 748.131,316.39 748.126,310.146 C748.279,310.131 748.486,310.12 748.764,310.12 L788.665,310.12 C789.701,310.12 792.854,310.12 794.056,307.947 C794.489,307.163 794.934,305.697 794.934,300.772 C794.934,291.656 792.183,284.009 786.758,278.045 L786.758,278.045 Z" id="Fill-12" fill="#FFFFFE"></path>
        <path d="M724.379,329.5 C723.749,329.5 722.783,329.711 721.259,330.056 C720.626,330.199 719.669,330.416 719.476,330.439 C719.466,330.434 718.535,329.848 718.218,325.608 L718.201,325.458 C718.163,325.153 718.099,323.657 718.099,317.071 L718.099,294.757 C718.099,287.116 715.7,280.839 710.968,276.101 C706.235,271.371 699.917,268.973 692.189,268.973 C688.133,268.973 684.544,269.687 681.525,271.094 C679.549,272.013 677.484,273.385 675.276,275.249 L675.689,253.618 C675.689,247.816 672.269,247.19 670.799,247.19 C670.523,247.19 669.13,247.215 667.645,247.241 C665.987,247.271 664.213,247.303 663.813,247.303 C662.575,247.303 659.351,247.251 657.269,247.218 C656.254,247.202 655.504,247.19 655.367,247.19 C653.445,247.19 651.774,247.807 650.392,249.032 C648.951,250.325 648.22,251.907 648.22,253.734 C648.22,257.665 650.563,260.012 654.487,260.012 C654.954,260.012 655.773,259.881 657.672,259.561 C658.467,259.426 659.668,259.224 659.882,259.207 C660.495,259.207 661.113,260.639 661.418,262.77 C661.902,266.161 662.148,274.585 662.148,287.812 L662.148,311.707 C662.063,319.949 661.793,325.436 661.346,328.021 C661.057,329.705 660.658,330.274 660.526,330.421 C660.194,330.37 659.478,330.224 658.935,330.114 C657.112,329.744 655.859,329.5 655.079,329.5 C648.889,329.5 648.22,333.79 648.22,335.633 C648.22,340.051 650.839,342.585 655.404,342.585 C655.817,342.585 658.045,342.567 660.514,342.546 C663.567,342.52 666.991,342.492 667.781,342.492 C669.102,342.492 672.131,342.523 674.665,342.55 C676.502,342.569 678.082,342.585 678.577,342.585 C683.379,342.585 686.133,340.099 686.133,335.765 C686.133,331.939 683.957,329.833 680.006,329.833 C679.349,329.833 678.683,330.084 677.913,330.375 C677.64,330.479 677.2,330.645 676.99,330.699 C676.363,330.602 675.616,329.128 675.308,326.014 C675.26,325.024 675.509,311.435 675.689,302.525 C675.765,295.639 676.762,290.645 678.657,287.669 C681.312,283.445 685.495,281.391 691.446,281.391 C696.821,281.391 700.445,283.313 702.534,287.283 C703.575,289.218 704.814,293.801 704.814,304.646 L704.814,317.555 C704.646,320.631 704.562,322.759 704.562,323.852 C704.5,327.932 703.758,330.569 702.726,330.571 C702.524,330.553 701.842,330.398 701.39,330.294 C700.166,330.015 699.313,329.833 698.641,329.833 C697.555,329.833 695.739,329.833 694.21,331.23 C692.925,332.409 692.246,333.935 692.246,335.643 C692.246,337.613 692.989,339.343 694.389,340.642 C695.768,341.931 697.494,342.585 699.518,342.585 C699.842,342.585 701.109,342.551 702.674,342.509 C705.083,342.444 708.383,342.354 709.703,342.354 C710.953,342.354 714.966,342.434 718.19,342.499 C720.54,342.545 722.547,342.585 723.002,342.585 C730.242,342.585 731.023,338.012 731.023,336.045 C731.023,331.886 728.602,329.5 724.379,329.5" id="Fill-13" fill="#FFFFFE"></path>
        <path d="M635.033,306.058 C630.584,306.058 627.965,308.922 627.849,313.916 L627.847,313.976 L627.85,314.036 C627.977,317.504 627.788,323.808 626.739,325.96 C625.355,328.8 623.093,330.021 619.112,330.043 C616.434,330.043 614.579,329.124 613.273,327.146 C611.833,324.965 611.102,321.522 611.102,316.914 L611.102,281.484 C611.102,280.928 611.167,280.615 611.217,280.458 L626.969,280.458 C631.991,280.458 634.872,277.786 634.872,273.128 C634.872,268.654 632.148,266.087 627.4,266.087 L611.694,266.087 C611.39,266.087 611.206,266.055 611.105,266.028 C611.104,266.001 611.102,265.968 611.102,265.928 L611.102,250.509 C611.102,245.761 608.483,243.038 603.918,243.038 C599.077,243.038 596.3,245.761 596.3,250.509 L596.3,265.351 C596.3,265.829 596.217,266.026 596.226,266.041 C596.194,266.054 596.085,266.087 595.852,266.087 L590.234,266.087 C588.431,266.087 586.807,266.829 585.408,268.29 C584.034,269.725 583.338,271.402 583.338,273.274 C583.338,275.266 584.06,276.981 585.482,278.372 C586.896,279.756 588.681,280.458 590.788,280.458 L595.5,280.458 C596.147,280.458 596.3,280.458 596.3,281.484 L596.3,316.049 C596.3,325.085 597.581,331.387 600.209,335.306 C603.827,340.775 609.876,343.548 618.188,343.548 C627.163,343.548 633.742,340.432 637.742,334.282 C640.615,329.846 642.073,325.596 642.073,314.682 C642.073,306.898 637.15,306.058 635.033,306.058" id="Fill-14" fill="#FFFFFE"></path>
        <path d="M490.867,319.339 C484.825,319.339 481.68,322.877 481.518,329.883 C481.523,330.034 482.022,344.976 479.506,350.139 C476.925,355.436 472.424,357.921 465.343,357.959 L465.231,357.959 C455.199,357.959 450.112,350.1 450.112,334.599 L450.112,277.55 C450.112,273.677 451.744,273.677 452.358,273.677 L477.88,273.677 C484.752,273.677 488.384,270.364 488.384,264.096 C488.384,258.132 484.993,254.979 478.576,254.979 L453.287,254.979 C450.489,254.979 450.112,253.727 450.112,252.502 L450.112,227.676 C450.112,221.258 446.88,217.866 440.765,217.866 C434.193,217.866 430.719,221.258 430.719,227.676 L430.719,251.575 C430.719,253.961 429.839,254.979 427.776,254.979 L418.733,254.979 C416.458,254.979 414.383,255.942 412.565,257.84 C410.763,259.724 409.849,261.908 409.849,264.331 C409.849,266.919 410.786,269.147 412.635,270.954 C414.481,272.761 416.833,273.677 419.624,273.677 L427.212,273.677 C429.67,273.677 430.719,274.835 430.719,277.55 L430.719,333.208 C430.719,347.108 432.713,357.128 436.645,362.988 C442.033,371.134 451.15,375.265 463.742,375.265 C477.395,375.265 487.362,370.586 493.367,361.357 C497.754,354.577 499.982,348.02 499.982,331.006 C499.982,321.364 495.025,319.339 490.867,319.339" id="Fill-15" fill="#0A0B09"></path>
        <path d="M354.54,304.157 L341.079,302.3 C327.927,300.505 321.534,295.063 321.534,285.666 C321.534,280.615 323.82,276.316 328.327,272.889 C332.923,269.413 338.732,267.65 345.591,267.65 C352.325,267.65 358.266,269.272 363.249,272.471 C368.113,275.602 370.652,279.344 370.797,283.578 L370.797,291.26 C370.959,296.751 373.91,299.653 379.33,299.653 C384.917,299.653 387.87,296.26 387.87,289.84 C387.87,288.911 387.816,285.425 387.763,281.938 L387.758,281.586 C387.707,278.234 387.657,274.962 387.657,274.067 C387.657,272.068 387.745,266.162 387.809,261.85 L387.816,261.337 C387.847,259.25 387.87,257.677 387.87,257.371 C387.87,251.863 384.878,248.952 379.218,248.952 C374.02,248.952 371.132,251.902 370.824,257.5 C364.006,252.75 355.628,250.342 345.908,250.342 C332.622,250.342 321.675,253.811 313.37,260.652 C304.997,267.543 300.751,276.661 300.751,287.752 C300.751,299.533 305.139,307.905 313.793,312.637 C322.213,317.239 334.592,320.437 350.589,322.144 C366.612,323.78 374.736,329.608 374.736,339.467 C374.736,344.994 372.37,349.647 367.704,353.297 C362.945,357.006 356.832,358.886 349.535,358.886 C339.261,358.886 330.693,356.83 324.07,352.773 C317.612,348.807 314.263,343.62 314.114,337.357 C313.948,330.395 313.432,326.345 312.487,324.605 C311.443,322.725 309.079,321.771 305.461,321.771 C299.954,321.771 297.042,324.923 297.042,330.888 C297.042,331.669 297.107,334.314 297.182,337.377 C297.288,341.642 297.418,346.951 297.418,349.128 C297.418,351.264 297.249,365.216 297.042,367.539 C297.042,374.413 300.354,378.046 306.619,378.046 C312.433,378.046 315.506,374.815 315.506,368.701 L315.506,366.281 C324.716,372.859 335.577,376.192 347.807,376.192 C361.702,376.192 373.119,372.643 381.74,365.644 C390.425,358.605 394.829,349.251 394.829,337.843 C394.829,319.112 381.273,307.778 354.54,304.157" id="Fill-16" fill="#0A0B09"></path>
        <path d="M268.716,355.639 C268.104,355.639 266.177,355.912 263.848,356.241 C262.091,356.488 259.905,356.796 259.438,356.796 C256.504,356.796 254.654,352.946 253.936,345.329 C253.834,344.627 253.714,341.341 253.714,329.663 L253.714,293.866 C253.714,282.478 254.098,273.783 254.844,268.076 C255.172,266.758 255.339,264.958 255.339,262.724 C255.339,257.204 252.587,254.286 247.382,254.286 C246.756,254.286 244.288,254.324 241.783,254.362 C239.357,254.4 236.947,254.438 236.336,254.438 C235.642,254.438 232.784,254.4 229.908,254.362 C227.046,254.324 224.189,254.286 223.495,254.286 C216.922,254.286 213.448,257.351 213.448,263.151 C213.448,268.37 216.602,271.128 222.567,271.128 L229.523,271.128 C232.793,271.128 234.066,276.665 234.556,281.257 L234.556,309.088 C234.556,325.708 233.332,337.132 230.918,343.043 C228.996,347.761 225.547,351.615 220.665,354.497 C215.737,357.41 209.979,358.886 203.551,358.886 C190.626,358.886 182.355,354.191 178.969,344.93 C176.856,339.182 175.785,329.541 175.785,316.276 L175.785,301.223 L176.48,264.096 C176.48,255.988 172.027,254.286 168.292,254.286 C168.193,254.286 167.154,254.301 165.653,254.324 C162.669,254.369 158.094,254.438 157.158,254.438 C156.386,254.438 153.36,254.4 150.334,254.362 C147.294,254.324 144.252,254.286 143.476,254.286 C134.408,254.286 132.504,258.8 132.504,262.586 C132.504,268.175 135.686,271.128 141.704,271.128 C142.302,271.128 144.266,270.96 146.637,270.757 C148.321,270.612 150.417,270.432 150.832,270.432 C152.573,270.432 156.621,273.431 156.621,301.204 L156.621,320.451 C156.621,330.963 156.697,337.655 156.854,340.907 C157.167,347.684 158.936,353.703 162.111,358.796 C169.386,370.339 182.469,376.192 200.997,376.192 C216.188,376.192 228.094,371.141 236.409,361.175 L236.409,365.45 C236.409,370.433 239.07,373.178 243.902,373.178 C244.784,373.178 248.276,373.143 250.835,373.117 L251.197,373.113 C252.496,373.1 253.487,373.09 253.643,373.09 C254.059,373.09 256.484,373.108 259.156,373.127 C262.44,373.152 266.095,373.178 266.863,373.178 C275.736,373.178 277.599,368.346 277.599,364.292 C277.599,358.631 274.527,355.639 268.716,355.639" id="Fill-17" fill="#0A0B09"></path>
        <path d="M138.241,223.738 C138.241,219.576 136.298,214.614 127.044,214.614 C126.466,214.614 122.979,214.683 118.564,214.771 C111.362,214.915 100.479,215.131 97.517,215.131 C94.103,215.131 81.293,214.88 73.64,214.73 L73.269,214.723 C70.023,214.659 67.714,214.614 67.444,214.614 C58.179,214.614 56.234,219.576 56.234,223.738 C56.234,226.161 57.034,228.228 58.61,229.881 C60.203,231.552 62.175,232.399 64.472,232.399 C66.256,232.399 68.457,232.156 71.061,231.665 C72.042,231.383 73.6,231.24 75.692,231.24 C83.045,231.24 86.62,236.527 86.62,247.403 L86.62,291.693 C86.62,303.274 85.973,313.003 85.451,320.838 C85.278,323.442 85.118,325.844 84.998,328.049 C83.857,349.212 74.668,358.65 55.203,358.65 C45.14,358.65 36.774,355.921 30.339,350.539 C24.802,345.907 21.624,340.138 20.894,333.419 L20.583,327.914 C20.583,324.959 22.17,321.631 23.016,321.631 C23.088,321.631 23.257,321.681 23.627,322.06 C26.137,324.037 29.033,325.082 32,325.082 C38.161,325.082 43.386,320.643 43.647,315.187 C43.823,311.503 42.895,308.568 40.888,306.463 C37.154,302.546 30.821,302.546 27.418,302.546 L27.199,302.546 C21.599,302.546 17.653,302.629 15.135,302.801 C6.982,303.383 2.367,310.622 1.707,314.368 C1.138,317.611 1.537,331.896 1.584,333.523 C2.222,347.156 6.716,356.992 15.726,364.479 C25.942,372.99 39.458,377.32 55.898,377.349 L56.043,377.349 C83.05,377.349 100.003,363.918 105.067,338.51 C106.874,329.455 107.868,312.828 107.868,291.693 L107.868,247.403 C107.868,236.527 111.407,231.24 118.687,231.24 C120.758,231.24 122.325,231.387 123.394,231.688 C126.058,232.16 128.222,232.399 129.825,232.399 C135.331,232.399 138.241,229.404 138.241,223.738" id="Fill-18" fill="#0A0B09"></path>
    </g>
</svg>
