<svg xmlns="http://www.w3.org/2000/svg" viewBox="0 0 500 100"><path d="M323.2.9v31.8h.3c3.7-6.3 9.6-9.5 18-9.5 6.1 0 10.7 1.6 13.9 5 3.3 3.3 4.8 8.7 4.8 16V99h-19V48c0-3.9-.6-6.5-1.9-8.1-1.3-1.5-3.3-2.2-6.2-2.2-6.6 0-10.1 4-10.1 12.2V99h-19V.9h19.2zm52.2 45.2c0-4.4.7-7.9 2.1-10.8 1.4-2.9 3.3-5.3 5.6-7.1 2.4-1.8 5.1-3 8.3-3.8 3.2-.8 6.6-1.2 10.2-1.2 5.7 0 10.2.6 13.8 1.6 3.4 1.1 6.2 2.6 8 4.6 1.9 2 3.3 4.5 4 7.2.6 2.8 1 5.9 1 9.1v39c0 3.4.2 6.2.5 8.1.2 1.9.9 4 1.9 6.2h-18.3c-.6-1.2-1.2-2.4-1.5-3.8-.2-1.3-.6-2.6-.9-3.9h-.2c-2.2 3.9-4.8 6.4-7.6 7.5-2.8 1.2-6.7 1.8-11.2 1.8-3.3 0-6.1-.6-8.4-1.8-2.2-1.1-4.1-2.7-5.4-4.7-1.4-2-2.4-4.3-3.1-6.7-.6-2.5-.9-5-.9-7.5 0-3.5.4-6.5 1.2-9 .7-2.5 1.8-4.7 3.3-6.5 1.6-1.8 3.5-3.2 5.8-4.4 2.2-1.2 5.1-2.2 8.4-3.2l10.7-2.8c2.8-.8 4.9-1.8 5.9-3.1 1.2-1.3 1.6-3.2 1.6-5.6 0-2.8-.5-5.1-1.9-6.7-1.4-1.5-3.5-2.4-6.9-2.4-2.8 0-5 .8-6.6 2.6-1.4 1.8-2.2 4.1-2.2 7v2.1h-17l-.2-1.8zm30.5 18.4c-1.4.6-2.8 1-4 1.3-3.8.8-6.6 2.2-8.3 4.1-1.7 2-2.5 4.6-2.5 7.8 0 2.8.6 5.3 1.7 7.3 1 2 2.8 2.9 5.4 2.9 1.2 0 2.6-.1 4-.6 1.4-.4 2.6-1.1 3.8-2 1.2-.8 2.1-2 2.8-3.5.7-1.4.9-3.2.9-5.2V62.1c-.9 1-2.3 1.8-3.8 2.4zM464 .9V99h-19V.9h19zm35.8 0V99h-19V.9h19z" fill="#b21f24"/><path d="M323.2.9v31.8h.3c3.7-6.3 9.6-9.5 18-9.5 6.1 0 10.7 1.6 13.9 5 3.3 3.3 4.8 8.7 4.8 16V99h-19V48c0-3.9-.6-6.5-1.9-8.1-1.3-1.5-3.3-2.2-6.2-2.2-6.6 0-10.1 4-10.1 12.2V99h-19V.9h19.2zm52.4 45.2c0-4.4.7-7.9 2.1-10.8 1.3-2.9 3.2-5.3 5.5-7.1 2.3-1.8 5-3 8.2-3.8 3.1-.8 6.5-1.2 10.1-1.2 5.6 0 10.4.6 13.7 1.6 3.5 1.1 6.2 2.6 8.3 4.6 1.9 2 3.1 4.5 3.8 7.2.7 2.8 1 5.9 1 9.1v39c0 3.4.2 6.2.6 8.1.4 1.9.9 4 1.8 6.2h-18c-.7-1.2-1.2-2.4-1.4-3.8-.4-1.3-.7-2.6-.9-3.9h-.4c-2.2 3.9-4.7 6.4-7.6 7.5-3 1.2-6.6 1.8-11.3 1.8-3.3 0-6-.6-8.4-1.8-2.3-1.1-4-2.7-5.4-4.7-1.4-2-2.4-4.3-3-6.7-.7-2.5-1-5-1-7.5 0-3.5.4-6.5 1.2-9 .7-2.5 1.8-4.7 3.3-6.5 1.5-1.8 3.4-3.2 5.8-4.4 2.3-1.2 5.1-2.2 8.4-3.2l10.7-2.8c2.8-.8 4.7-1.8 5.9-3.1 1.2-1.3 1.7-3.2 1.7-5.6 0-2.8-.7-5.1-2-6.7-1.4-1.5-3.7-2.4-6.8-2.4s-5.2.8-6.7 2.6c-1.4 1.8-2.2 4.1-2.2 7v2.1h-17.1l.1-1.8zm30.6 18.4c-1.6.6-2.8 1-4 1.3-4 .8-6.7 2.2-8.3 4.1-1.6 2-2.5 4.6-2.5 7.8 0 2.8.6 5.3 1.6 7.3 1.1 2 3.1 2.9 5.6 2.9 1.2 0 2.6-.1 3.9-.6 1.3-.4 2.8-1.1 3.8-2 1.2-.8 2.1-2 2.8-3.5.7-1.4 1.2-3.2 1.2-5.2V62.1c-1.4 1-2.7 1.8-4.1 2.4zM445.3.9h19V99h-19V.9zm35.7 0h19V99h-19V.9z" fill="#b21f24"/><path d="M62.7 17.2H41.2V99H21.5V17.2H0V.9h62.7v16.3zM62.2 45.4c1-4.8 2.7-8.9 5-12.2 2.2-3.2 5.3-5.7 9-7.4 3.7-1.7 8.3-2.5 13.6-2.5 5.7-.1 10.4.7 14.2 2.2 3.7 1.6 6.8 4 8.9 7.3 2.2 3.3 3.8 7.3 4.7 12.2.8 4.8 1.3 10.6 1.3 17.1 0 6.4-.5 12-1.5 16.8-.9 4.8-2.6 8.9-4.9 12.1-2.4 3.3-5.3 5.7-9 7.2-3.8 1.5-8.3 2.4-13.8 2.4-5.7.1-10.3-.6-14.1-2.1-3.8-1.5-6.8-3.9-8.9-7.1C64.5 88 62.9 84 62 79c-.9-4.8-1.4-10.6-1.4-17 .1-6.2.7-11.8 1.6-16.6zM80 72.5c.1 3.2.6 6 1.3 8.3.7 2.2 1.6 4 3.1 5.3 1.4 1.3 3.2 1.9 5.4 1.9 3.9 0 6.5-2 8.1-6 1.4-4 2.1-10.7 2.1-19.9s-.7-15.9-2.1-19.9c-1.5-4-4.1-6-8.1-6-2.2 0-4.1.6-5.4 1.9-1.4 1.3-2.4 3.1-3.1 5.4-.7 2.3-1.2 5-1.3 8.2-.2 3.2-.3 6.7-.3 10.4 0 3.8.1 7.2.3 10.4zm66.7-47.4l8.7 52.5h.3l9.1-52.5h20.6l9.8 52.5h.2l8.9-52.5h18.2l-16 73.9h-21.6l-9.7-52.5h-.3l-9 52.5h-22l-16.1-73.9h18.9zm104 0v8.7h.2c2-3.7 4.6-6.3 7.9-8 3.2-1.7 6.9-2.5 11-2.5 6.1 0 10.7 1.6 14 5 3.2 3.3 4.9 8.7 4.9 16V99h-19V48c0-3.9-.6-6.5-1.9-8.1-1.3-1.5-3.3-2.2-6.2-2.2-6.8 0-10.1 4-10.1 12.2V99h-18.9V25h18.1z" fill="#b21f24"/></svg>