<svg xmlns="http://www.w3.org/2000/svg" xml:space="preserve" id="Layer_1" x="0" y="0" version="1.1" viewBox="0 0 681.7 109"><path fill="#007ea1" d="M.5 0h43.8v14.1H.5z"/><path fill="#e90000" d="M44.2 0H88v14.1H44.2z"/><path fill="#00892a" d="M87.4 0h43.8v14.1H87.4z"/><path fill="#296bfc" d="M130.9 0h43.8v14.1h-43.8z"/><path d="M46.6 67.4H14V48h35.8l.1-12H.2v72H14V79.5h32.6zM180.2 93.8c-3.5 1.5-6.9 2.3-10.3 2.3-4.5 0-8.5-1.1-12.2-3.2-3.7-2.2-6.6-5.1-8.7-8.8-2.1-3.7-3.2-7.8-3.2-12.3 0-4.5 1.1-8.5 3.2-12.3 2.1-3.7 5-6.7 8.7-8.8 3.7-2.1 7.8-3.2 12.2-3.2 3.6 0 7.1.8 10.5 2.5 3.5 1.6 6.5 3.9 9 6.9l8-10.1c-3.5-3.6-7.7-6.5-12.6-8.5-4.9-2.1-10-3.1-15.1-3.1-7.1 0-13.5 1.6-19.3 4.8-5.8 3.2-10.4 7.6-13.7 13.3-3.4 5.6-5 11.9-5 18.7 0 6.9 1.6 13.1 4.9 18.8 3.3 5.7 7.8 10.1 13.6 13.4 5.8 3.3 12.1 4.9 19 4.9 5.1 0 10.2-1.1 15.2-3.3 5-2.2 9.4-5.3 13.2-9.1l-8.1-9c-2.8 2.5-5.9 4.6-9.3 6.1zM205.1 48.2h22.4V108h13.9V48.2h22.4V36h-58.7zM325.8 39.9c-5.9-3.2-12.4-4.8-19.5-4.8s-13.6 1.6-19.5 4.8c-5.9 3.2-10.5 7.6-13.8 13.3-3.4 5.6-5 11.9-5 18.7 0 6.9 1.7 13.1 5 18.8 3.4 5.7 8 10.1 13.8 13.4 5.9 3.3 12.4 4.9 19.5 4.9s13.6-1.6 19.5-4.9c5.9-3.3 10.5-7.8 13.8-13.4 3.4-5.7 5-11.9 5-18.8s-1.7-13.1-5-18.7c-3.4-5.7-8-10.1-13.8-13.3zm1.5 44.4c-2.2 3.8-5.1 6.8-8.8 8.9-3.7 2.2-7.7 3.3-12 3.3-4.4 0-8.4-1.1-12.2-3.3-3.7-2.2-6.7-5.2-8.9-8.9-2.2-3.8-3.3-7.9-3.3-12.4s1.1-8.7 3.3-12.4c2.2-3.7 5.2-6.7 8.9-8.8 3.8-2.2 7.8-3.2 12.2-3.2 4.3 0 8.3 1.1 12 3.2 3.7 2.2 6.6 5.1 8.8 8.8 2.2 3.7 3.2 7.9 3.2 12.4s-1 8.6-3.2 12.4zM412.3 75.2c2.4-4 3.7-8.8 3.7-14.4 0-7.9-2.5-14-7.6-18.3-5.1-4.3-12.3-6.5-21.6-6.5h-30v72h13.8V86.8h16.2c1.2 0 2 0 2.6-.1l12.4 21.3h15.7l-15.8-23.9c4.6-2 8.2-5 10.6-8.9zm-13.6-3.9c-2.7 2.3-6.7 3.4-11.9 3.4h-16.2V48h16.2c5.2 0 9.2 1.1 11.9 3.3 2.7 2.2 4.1 5.5 4.1 9.9s-1.4 7.8-4.1 10.1zM440 48.2h22.4V108h13.9V48.2h22.4V36H440zM558.1 66.7h-35.8V36h-13.8v72h13.8V78.8h35.8V108h13.8V36h-13.8zM585.6 36h13.8v72h-13.8zM657.3 69.8c-3.1-1.4-7.1-2.9-12-4.3-3.5-1-6.3-2-8.3-2.8-2-.9-3.7-2-5-3.3-1.3-1.3-2-3-2-5 0-2.2 1-3.9 2.9-5.1 1.9-1.2 4.5-1.9 7.8-1.9 2.9 0 6.4.6 10.2 1.9 3.9 1.2 7.7 3 11.4 5.2l5.6-12c-3.6-2.3-7.6-4.2-12.2-5.6-4.6-1.4-9.2-2.1-13.8-2.1-5.3 0-10.1.9-14.1 2.6-4.1 1.7-7.2 4.1-9.5 7.2-2.2 3.1-3.3 6.8-3.3 10.9 0 4.5 1.1 8.2 3.3 10.9 2.2 2.8 4.8 4.8 7.9 6.2 3.1 1.4 7.1 2.8 11.9 4.2 3.6 1 6.4 2 8.4 2.8 2.1.8 3.8 1.9 5.1 3.2 1.3 1.3 2 3 2 5.1 0 2.5-1.1 4.5-3.3 6-2.2 1.5-5.2 2.2-9 2.2-3.9 0-8.1-1-12.6-2.9s-8.6-4.6-12.2-7.9L610.7 97c4 3.5 8.6 6.3 14 8.4 5.3 2.1 10.8 3.1 16.4 3.1 5.3 0 10.1-.9 14.2-2.6 4.1-1.7 7.4-4.2 9.8-7.5 2.4-3.3 3.5-7.1 3.5-11.5 0-4.6-1.1-8.3-3.3-11.1-2.2-2.4-4.9-4.5-8-6zM87.6 21.3l-7.8 14.3-39.2 72.3h15.6l31.4-58 31.5 58h15.5L95.4 35.6zM681.7 35.9h-.7l-2.3 3.5-2.3-3.5h-.7v5.2h.8v-3.6l2 3h.4l2-3.1v3.7h.8zM670.3 36.6h1.9v4.5h.8v-4.5h1.9v-.7h-4.6z" fill="#fff"/></svg>