<?xml version="1.0" encoding="UTF-8"?>
<svg width="268px" height="132px" viewBox="0 0 268 132" version="1.1" xmlns="http://www.w3.org/2000/svg" xmlns:xlink="http://www.w3.org/1999/xlink">
    <!-- Generator: Sketch 43.2 (39069) - http://www.bohemiancoding.com/sketch -->
    <title>logo</title>
    <desc>Created with Sketch.</desc>
    <defs></defs>
    <g id="VECTOR-ASSETS" stroke="none" stroke-width="1" fill="none" fill-rule="evenodd">
        <g id="logo">
            <g id="LOGO">
                <path d="M57.2203103,40.7984643 C64.6928897,45.5837392 68.5964483,54.0907918 68.5964483,64.0586515 C68.5964483,85.9901602 50.3040621,94.7623942 34.4643379,94.7623942 C18.4037448,94.7623942 4.12673793,86.787552 0.000462068966,66.9839614 L21.7500483,62.3308152 C23.7572759,70.4396339 28.8890138,73.3630959 35.6934414,73.3630959 C38.7033586,73.3630959 44.7278138,72.8308854 44.7278138,67.7813532 C44.7278138,62.1977626 38.8151793,61.1351895 35.3579793,60.3368737 C20.9691517,57.0151778 3.90402069,52.3620316 3.90402069,30.697552 C3.90402069,21.7913415 7.58486207,13.0191076 13.7192897,7.83467485 C19.9655379,2.65116608 28.1081172,0.923329825 35.6934414,0.923329825 C48.9649862,0.923329825 61.7929448,7.43644094 66.4783241,23.2539965 L47.0695793,30.2974702 C44.8387103,23.5191778 40.6006138,21.1270023 34.6879793,21.1270023 C31.5653172,21.1270023 27.1045034,22.1904994 27.1045034,26.9757743 C27.1045034,31.7601251 32.6807517,32.6905696 35.5806966,33.4879614 C42.8314828,35.2157977 50.5267793,36.6784526 57.2203103,40.7984643 Z M103.055796,24.1844409 C120.902748,24.1844409 134.397934,38.2732363 134.397934,60.0716924 C134.397934,80.6735988 120.456389,94.7623942 103.055796,94.7623942 C85.6542786,94.7623942 71.7136579,80.6735988 71.7136579,60.0716924 C71.7136579,38.2732363 85.2097683,24.1844409 103.055796,24.1844409 Z M103.055796,78.6796573 C107.070251,78.6796573 110.752941,77.350055 110.752941,59.141248 C110.752941,52.6290608 110.64112,40.7984643 103.055796,40.7984643 C95.4713959,40.7984643 95.358651,52.6290608 95.358651,59.141248 C95.358651,77.350055 99.0413407,78.6796573 103.055796,78.6796573 Z M139.299007,93.4325146 L139.299007,2.25173099 L161.384979,2.25173099 L161.384979,93.4325146 L139.299007,93.4325146 Z M225.291243,54.7555006 L225.291243,78.5460503 C225.291243,83.5974304 225.402139,88.6488105 227.074829,93.4322374 L205.771601,93.4322374 C205.214346,90.3757228 204.990705,87.1870795 204.990705,83.9965883 C200.529891,91.8393018 194.171822,94.7627637 186.363781,94.7627637 C175.767615,94.7627637 166.509601,87.8523427 166.509601,74.292986 C166.509601,63.5277345 173.536746,56.3493602 181.455684,53.4258982 C188.70647,50.7685415 196.402691,49.7041205 203.87527,49.1728339 L203.87527,48.6406234 C203.87527,42.5266702 202.538043,40.1335708 197.183588,40.1335708 C192.832746,40.1335708 189.151905,41.9953836 188.482829,47.7111029 L168.183215,45.4510561 C171.529519,28.5700035 185.026553,24.1848105 197.851739,24.1848105 C204.544346,24.1848105 213.134208,25.2473836 218.710457,30.0317345 C226.18396,36.2787404 225.291243,45.0509743 225.291243,54.7555006 Z M203.87527,62.995524 L203.87527,61.6677696 C198.520815,62.3302608 189.598263,64.3242023 189.598263,72.5651497 C189.598263,76.9512667 191.940953,78.8112316 195.398153,78.8112316 C203.76345,78.8112316 203.87527,70.4400035 203.87527,62.995524 Z M264.546219,24.1844409 L267.557061,24.4496222 L267.557061,48.2429439 C266.219833,47.842862 264.768937,47.5776807 263.319888,47.5776807 C259.749943,47.5776807 256.069102,48.3741485 254.284592,52.2299029 C252.722799,55.5515988 252.722799,59.9386398 252.722799,63.9255988 L252.722799,93.4327918 L230.63775,93.4327918 L230.63775,25.5121953 L249.487392,25.5121953 L249.487392,39.468862 L249.711033,39.468862 C251.60644,30.0322889 255.734564,23.3870491 264.546219,24.1844409 Z" id="Solar" fill="#FBAF3F"></path>
                <path d="M18.5382993,112.890261 L21.5703959,112.890261 C24.2420786,112.890261 25.5774579,111.908998 25.5774579,109.944623 C25.5774579,108.097594 24.3428097,107.173618 21.8735131,107.173618 L18.5382993,107.173618 L18.5382993,112.890261 Z M18.6686028,119.235208 L18.6686028,129.976436 L9.46326483,129.976436 L9.46326483,100.416577 L22.0906855,100.416577 C25.2382993,100.416577 27.6318166,100.777851 29.2703131,101.499477 C30.9097338,102.221103 32.2090717,103.325255 33.169251,104.812857 C34.1294303,106.299536 34.6099821,107.967313 34.6099821,109.815267 C34.6099821,112.630623 33.6276234,114.90453 31.6638303,116.636986 C29.7000372,118.369442 27.0791821,119.235208 23.8012648,119.235208 L18.6686028,119.235208 Z M45.7359559,130.431495 C42.0828386,130.431495 39.1810455,129.29408 37.0287283,127.020173 C34.8773352,124.747191 33.8016386,122.07967 33.8016386,119.018536 C33.8016386,115.727331 34.9244662,112.984044 37.1701214,110.7896 C39.4157766,108.595156 42.3360524,107.498395 45.930949,107.498395 C49.5554179,107.498395 52.4692248,108.580372 54.6705214,110.746173 C56.8727421,112.911974 57.9743145,115.625694 57.9743145,118.889179 C57.9743145,122.180384 56.85888,124.927366 54.6270869,127.129202 C52.3962179,129.330115 49.4325076,130.431495 45.7359559,130.431495 Z M45.8662593,125.190699 C47.2090317,125.190699 48.0287421,124.494021 48.3244662,123.100664 C48.6201903,121.707308 48.7689766,120.252968 48.7689766,118.737647 C48.7689766,116.672559 48.5591972,115.185881 48.1405628,114.275764 C47.7219283,113.366571 46.9706041,112.911974 45.8875145,112.911974 C44.8912938,112.911974 44.162149,113.381354 43.70008,114.319191 C43.238011,115.257951 43.0069766,116.80284 43.0069766,118.953857 C43.0069766,121.480009 43.2454041,123.151483 43.7222593,123.967354 C44.1981903,124.783226 44.9134731,125.190699 45.8662593,125.190699 Z M88.8955076,107.952715 L81.923811,129.976621 L75.7071352,129.976621 L72.8238248,118.044387 L69.8139076,129.976621 L63.6619214,129.976621 L56.5580731,107.952715 L65.0472041,107.952715 L67.9545421,118.735522 L70.7251076,107.952715 L77.1173697,107.952715 L79.8491214,118.72813 L82.8978524,107.952715 L88.8955076,107.952715 Z M102.428306,122.071816 L110.485865,122.613267 C110.00901,124.779068 108.792844,126.623325 106.83552,128.146963 C104.87912,129.669676 102.233313,130.431033 98.8971752,130.431033 C95.1867614,130.431033 92.2267476,129.35922 90.0171338,127.215594 C87.80752,125.071968 86.7031752,122.41184 86.7031752,119.235208 C86.7031752,115.944004 87.7936579,113.164682 89.9736993,110.898167 C92.1546648,108.631653 95.063851,107.497933 98.7031062,107.497933 C102.22592,107.497933 105.074113,108.56605 107.247686,110.703208 C109.420334,112.839442 110.50712,115.749044 110.50712,119.430167 C110.50712,119.733232 110.499727,120.151793 110.485865,120.685851 L95.7356993,120.685851 C95.7643476,122.071816 96.0101683,123.101126 96.4722372,123.771933 C96.9343062,124.443664 97.8150097,124.779068 99.1143476,124.779068 C100.991272,124.779068 102.095617,123.877267 102.428306,122.071816 Z M101.843327,116.355173 C101.828541,114.868495 101.530044,113.868752 100.946913,113.355945 C100.364706,112.843138 99.6411062,112.587196 98.7788855,112.587196 C96.7356166,112.587196 95.71352,113.842881 95.71352,116.355173 L101.843327,116.355173 Z M120.651937,129.976621 L112.37813,129.976621 L112.37813,107.952715 L119.568847,107.952715 L119.568847,112.500527 C120.392254,109.194539 122.305219,107.541545 125.308668,107.541545 C125.611785,107.541545 126.030419,107.570188 126.564571,107.628399 L126.564571,115.315884 C125.958337,115.171744 125.416792,115.09875 124.940861,115.09875 C122.081578,115.09875 120.651937,116.694457 120.651937,119.884949 L120.651937,129.976621 Z M178.868098,101.105956 L171.026788,130.665815 L163.40265,130.665815 L159.266208,114.359476 L155.360801,130.665815 L147.411367,130.665815 L139.556194,101.105956 L148.095229,101.105956 L152.23167,118.119137 L156.265532,101.105956 L163.390636,101.105956 L167.780291,118.1524 L171.921353,101.105956 L178.868098,101.105956 Z M188.314451,131.120874 C184.661334,131.120874 181.759541,129.983458 179.608148,127.709552 C177.456754,125.43657 176.381058,122.769049 176.381058,119.707915 C176.381058,116.41671 177.503886,113.673423 179.748617,111.478979 C181.994272,109.284535 184.914548,108.187774 188.509444,108.187774 C192.133913,108.187774 195.04772,109.269751 197.249017,111.435552 C199.451237,113.601353 200.55281,116.315073 200.55281,119.578558 C200.55281,122.869763 199.437375,125.616745 197.205582,127.818581 C194.974713,130.019494 192.011003,131.120874 188.314451,131.120874 Z M188.444754,125.880078 C189.787527,125.880078 190.607237,125.1834 190.902961,123.790043 C191.198686,122.396687 191.347472,120.942347 191.347472,119.427026 C191.347472,117.361938 191.137692,115.87526 190.719058,114.965143 C190.300423,114.05595 189.549099,113.601353 188.46601,113.601353 C187.469789,113.601353 186.740644,114.070733 186.278575,115.00857 C185.816506,115.94733 185.585472,117.492219 185.585472,119.643236 C185.585472,122.169388 185.823899,123.840862 186.300754,124.656733 C186.776686,125.472605 187.491968,125.880078 188.444754,125.880078 Z M211.340641,130.666 L203.066834,130.666 L203.066834,108.642094 L210.257552,108.642094 L210.257552,113.189906 C211.080959,109.883918 212.993924,108.230924 215.997372,108.230924 C216.30049,108.230924 216.719124,108.259567 217.253276,108.317778 L217.253276,116.005263 C216.647041,115.861123 216.105497,115.788129 215.629566,115.788129 C212.770283,115.788129 211.340641,117.383836 211.340641,120.574327 L211.340641,130.666 Z M219.139903,130.666 L219.139903,101.10614 L227.652138,101.10614 L227.652138,130.666 L219.139903,130.666 Z M252.865486,130.665908 L244.764492,130.665908 L244.764492,127.742446 C243.565886,129.995101 241.58823,131.120504 238.829679,131.120504 C236.288299,131.120504 234.227472,130.128153 232.646272,128.143451 C231.065072,126.157826 230.274934,123.274095 230.274934,119.491335 C230.274934,115.954352 231.068768,113.146387 232.657361,111.06744 C234.245954,108.988492 236.34652,107.949019 238.959982,107.949019 C241.140023,107.949019 242.938396,108.779674 244.353251,110.44006 L244.353251,101.106048 L252.865486,101.106048 L252.865486,130.665908 Z M244.353251,116.503194 C244.353251,114.52496 243.537237,113.536305 241.906134,113.536305 C240.764823,113.536305 240.01812,114.164609 239.664175,115.420294 C239.31023,116.675978 239.13372,118.214399 239.13372,120.032785 C239.13372,123.599335 240.043072,125.381685 241.862699,125.381685 C242.555803,125.381685 243.143554,125.100796 243.627803,124.537171 C244.111127,123.974469 244.353251,123.115171 244.353251,121.9602 L244.353251,116.503194 Z" id="Power-World" fill="#000000"></path>
            </g>
        </g>
    </g>
</svg>